<svg xmlns="http://www.w3.org/2000/svg" xmlns:xlink="http://www.w3.org/1999/xlink" width="301" height="251" viewBox="0 0 301 251"><defs><linearGradient id="a" x1="18.95" y1="211.76" x2="30.15" y2="215.78" gradientUnits="userSpaceOnUse"><stop offset="0" stop-color="#f60"/><stop offset="0.15" stop-color="#dd5c0e"/><stop offset="0.57" stop-color="#874430"/><stop offset="0.86" stop-color="#503446"/><stop offset="1" stop-color="#3b2e4f"/></linearGradient><linearGradient id="b" x1="16.28" y1="213.56" x2="26.22" y2="211.8" gradientUnits="userSpaceOnUse"><stop offset="0" stop-color="#ffe386"/><stop offset="1" stop-color="#f60"/></linearGradient><linearGradient id="c" x1="18.15" y1="213.4" x2="33.21" y2="213.4" gradientUnits="userSpaceOnUse"><stop offset="0" stop-color="#ca6500"/><stop offset="1" stop-color="#7c0000"/></linearGradient><linearGradient id="d" x1="23.06" y1="202.6" x2="28.82" y2="208.36" gradientUnits="userSpaceOnUse"><stop offset="0" stop-color="#009"/><stop offset="1" stop-color="#00007c"/></linearGradient></defs><title>Asset 1</title><path d="M28,225.32c-.1.66-.44,1-.85,1a.36.36,0,0,1-.37-.47l.14-.9a.63.63,0,0,1,.61-.59C27.93,224.37,28.11,224.63,28,225.32Zm-1.4,1.32a.93.93,0,0,0,.62.23,1.62,1.62,0,0,0,1.59-1.53c.19-1.06-.33-1.54-1-1.54a1.47,1.47,0,0,0-.7.12l.25-1.46h-.77l-.76,4.36h.58s.08-.18.17-.18Zm8.15-1.86c.11-.66-.13-1-.85-1a1.15,1.15,0,0,0-.94.44l0-.37h-.71l-.06.54-.41,2.41h.78l.25-1.57c.09-.53.46-.95.81-.95s.39.23.32.57l-.33,1.95h.77Zm3.24-1h-.91l-1,1.1h0l.42-2.44h-.75l-.77,4.36h.77l.08-.44.15-.95c.41,0,.64,0,.82.85l.12.54h.78a11.49,11.49,0,0,0-.32-1.15c-.13-.34-.28-.56-.59-.62Zm-22.26,1.07a1.26,1.26,0,0,0,.93-.87c.2-.81-.17-1.44-1.2-1.43H14.28l-.75,4.25h.78l.3-1.71c.71,0,.8.15.93,1l.13.73h.8c-.1-.44-.16-.85-.24-1.19a.92.92,0,0,0-.54-.75Zm.15-1a.74.74,0,0,1-.72.64h-.45l.23-1.34h.42C15.85,223.15,15.94,223.48,15.88,223.86Zm3.49.8c.11-.64-.23-.87-.93-.87a1.7,1.7,0,0,0-1.24.42l.27.44a1.15,1.15,0,0,1,.84-.32c.31,0,.31.16.28.32l-.06.39c-1.11,0-1.69.21-1.81.94s.34.89.85.89a1,1,0,0,0,.72-.26.34.34,0,0,0,.24.24,1,1,0,0,0,.53-.07,3.94,3.94,0,0,1,.09-.85Zm-.91.78c-.13.88-.24,1-.67,1s-.39-.2-.34-.46S17.78,225.44,18.46,225.44Zm13.16-.78c.11-.64-.23-.87-.93-.87a1.7,1.7,0,0,0-1.24.42l.27.44a1.14,1.14,0,0,1,.83-.32c.32,0,.32.16.29.32l-.06.39c-1.11,0-1.69.21-1.81.94s.34.89.85.89a1,1,0,0,0,.72-.26.34.34,0,0,0,.24.24.93.93,0,0,0,.52-.07,4.39,4.39,0,0,1,.1-.85Zm-.92.78c-.12.88-.24,1-.66,1s-.39-.2-.35-.46S30,225.44,30.7,225.44Zm-9.78,1.43a1.63,1.63,0,0,0,1.6-1.53c.18-1.06-.34-1.54-1-1.54a1.55,1.55,0,0,0-.7.12l.25-1.46h-.76l-.76,4.36h.57s.09-.18.17-.18A1,1,0,0,0,20.92,226.87Zm.32-2.5c.4,0,.57.26.47.95s-.44,1-.86,1a.36.36,0,0,1-.36-.47l.14-.9a.63.63,0,0,1,.61-.59Zm1.6,1.21c.12-1.11.62-1.8,1.81-1.8.88,0,1.18.68,1.06,1.4-.19,1.16-.64,1.71-1.78,1.71A1.1,1.1,0,0,1,22.84,225.58Zm2.06-.34c.06-.31.12-.91-.41-.91-.36,0-.69.24-.84,1.09-.09.51,0,.93.42.93S24.74,226.1,24.9,225.24Z" style="fill:#009"/><path d="M47.75,203a16.14,16.14,0,0,1,3.48-.34,6.28,6.28,0,0,1,3.64.91,3.23,3.23,0,0,1,1.39,2.66A4.25,4.25,0,0,1,53,210.31v.07c.92.36,1.36,1.36,1.51,2.72a25.87,25.87,0,0,0,.55,4H52.51a26.06,26.06,0,0,1-.42-3.42c-.15-1.83-.83-2.49-2.13-2.49H48.75l-1,5.91H45.26Zm1.34,6.32h1.4c1.6,0,3.19-.94,3.19-2.77,0-1.34-1.06-1.94-2.47-1.94a5.27,5.27,0,0,0-1.34.13Z" style="fill:#009"/><path d="M65.1,214.63a15.07,15.07,0,0,0-.25,2.49H62.51v-1.23h0a4.07,4.07,0,0,1-3.15,1.47,2.72,2.72,0,0,1-3-2.66c0-3.58,3.6-4.32,6.87-4.34l0-.17a1.77,1.77,0,0,0,0-.41c0-.61-.15-1.34-1.85-1.34a6.32,6.32,0,0,0-2.94.81l-.23-1.81a8.34,8.34,0,0,1,3.89-.91c2.72,0,3.68,1.42,3.68,3.19a7,7,0,0,1-.11,1.19ZM63,212.06c-1.62,0-4,.25-4,2.32,0,.76.53,1.1,1.25,1.1a2.53,2.53,0,0,0,2.32-1.32,2.5,2.5,0,0,0,.17-.68Z" style="fill:#009"/><path d="M71.64,202l-1.2,6.25h0a4.09,4.09,0,0,1,3.36-1.74c2,0,3.19,1.76,3.19,3.76,0,3.26-2,7.07-6.55,7.07-2.17,0-3.49-.94-3.51-2.81a8.41,8.41,0,0,1,.17-1.77l2-10.76Zm-2,10.89a5.94,5.94,0,0,0-.13,1.23,1.24,1.24,0,0,0,1.4,1.3c2.15,0,3.53-2.74,3.53-4.76,0-1-.44-2.13-1.66-2.13s-2.59,1.32-3,3.4Z" style="fill:#009"/><path d="M77.87,213c0-3.47,2.38-6.42,5.87-6.42A4.12,4.12,0,0,1,88,211c0,3.47-2.39,6.41-5.85,6.41A4.13,4.13,0,0,1,77.87,213Zm7.61-2c0-1.28-.59-2.49-2-2.49-1.93,0-3,2.55-3,4.47,0,1.3.57,2.53,2,2.53C84.27,215.44,85.48,213,85.48,210.93Z" style="fill:#009"/><path d="M91,203a23.42,23.42,0,0,1,3.76-.29,7.47,7.47,0,0,1,5.3,1.7,5.84,5.84,0,0,1,1.7,4.32A8.56,8.56,0,0,1,99,215.29c-1.64,1.34-3.72,1.94-6.66,1.94a23.42,23.42,0,0,1-3.74-.26Zm.36,12.15a11.25,11.25,0,0,0,1.57.09,5.8,5.8,0,0,0,4.51-1.77,6.82,6.82,0,0,0,1.64-4.66c0-2.7-1.53-4.1-4.32-4.1a9.12,9.12,0,0,0-1.59.12Z" style="fill:#009"/><path d="M102.31,217.12l1.81-10.36h2.47l-1.79,10.36Zm3.62-14.66a1.29,1.29,0,0,1,1.34,1.34,1.44,1.44,0,0,1-1.49,1.47,1.25,1.25,0,0,1-1.32-1.3A1.46,1.46,0,0,1,105.93,202.46Z" style="fill:#009"/><path d="M107.12,217.12l1.1-6.38c.26-1.47.39-3.06.47-4h2.15c0,.7-.11,1.43-.19,2.17h.06a3.77,3.77,0,0,1,3.21-2.4c.18,0,.28,0,.54,0L114,209a3.39,3.39,0,0,0-.47,0c-1.76,0-2.85,1.79-3.23,4l-.73,4.17Z" style="fill:#009"/><path d="M121.88,216.5a8.12,8.12,0,0,1-3.64.83c-2.64,0-4.29-1.55-4.29-4.4,0-3.08,2.23-6.4,5.74-6.4,2,0,3.38,1.17,3.38,2.91,0,2.92-3,3.43-6.72,3.43a2.93,2.93,0,0,0,.28,1.46,2.29,2.29,0,0,0,2.14,1,6.63,6.63,0,0,0,2.86-.68Zm-2.49-8.12a3.15,3.15,0,0,0-2.83,2.64c3.17,0,4.17-.51,4.17-1.58C120.73,208.78,120.18,208.38,119.39,208.38Z" style="fill:#009"/><path d="M130.69,216.74a7,7,0,0,1-3,.59,4,4,0,0,1-4.25-4.23,6.39,6.39,0,0,1,6.46-6.57,5.44,5.44,0,0,1,2.13.4l-.6,1.92a3.69,3.69,0,0,0-1.57-.32c-2.32,0-3.83,2.08-3.83,4.38a2.18,2.18,0,0,0,2.3,2.42,5.19,5.19,0,0,0,2.19-.48Z" style="fill:#009"/><path d="M137.09,204.1l-.45,2.66H139l-.34,1.92H136.3l-.74,4.19a10.58,10.58,0,0,0-.17,1.46.8.8,0,0,0,.91.92,5.57,5.57,0,0,0,.85-.06l-.19,1.93a4.91,4.91,0,0,1-1.61.21c-1.71,0-2.49-.93-2.49-2.12a10.63,10.63,0,0,1,.19-1.92l.83-4.61H132.5l.31-1.92h1.39l.36-1.93Z" style="fill:#009"/><polygon points="55.07 226.82 56.03 226.82 57.01 221.3 56.04 221.3 55.07 226.82" style="fill:#f60"/><polygon points="43.83 226.82 44.78 226.82 45.17 224.6 47.1 224.6 47.24 223.81 45.31 223.81 45.57 222.37 47.63 222.37 47.77 221.58 44.75 221.58 43.83 226.82" style="fill:#f60"/><path d="M136.38,224.56c-.45-.17-.61-.29-.56-.53a.53.53,0,0,1,.59-.4,1.53,1.53,0,0,1,.77.22l.3-.68a2.06,2.06,0,0,0-1-.22,1.56,1.56,0,0,0-1.64,1.19c-.08.44.15.84.85,1.1.43.16.57.3.52.55s-.26.42-.68.42a1.85,1.85,0,0,1-.92-.27l-.31.69a2.13,2.13,0,0,0,1.1.26c1,0,1.63-.49,1.75-1.18S137,224.81,136.38,224.56Z" style="fill:#f60"/><path d="M133.54,223l-.13.51h0a1,1,0,0,0-1-.59,2.23,2.23,0,0,0-2.06,2c-.19,1.07.34,1.84,1.28,1.84a1.55,1.55,0,0,0,1.2-.56h0l-.05.33a1.24,1.24,0,0,1-1.29,1.14,2,2,0,0,1-1.05-.29l-.34.73a2.39,2.39,0,0,0,1.27.3,2.51,2.51,0,0,0,1.54-.46,2.62,2.62,0,0,0,.86-1.71l.38-2.15c.09-.52.16-.83.22-1.09Zm-.42,1.52-.11.61a1.91,1.91,0,0,1-.1.34,1,1,0,0,1-.88.58c-.6,0-.83-.52-.72-1.17s.62-1.23,1.15-1.23a.63.63,0,0,1,.67.61A1.15,1.15,0,0,1,133.12,224.55Z" style="fill:#f60"/><path d="M128.72,223a1.7,1.7,0,0,0-1.32.65h0l.05-.57h-.83c0,.33-.1.7-.17,1.13l-.47,2.66h1l.39-2.22a.94.94,0,0,1,.1-.31,1,1,0,0,1,.84-.56c.52,0,.65.41.56,1l-.38,2.14h.95l.4-2.25C130,223.38,129.38,223,128.72,223Z" style="fill:#f60"/><path d="M125.55,221.46a.62.62,0,0,0-.62.52.4.4,0,0,0,.43.51A.62.62,0,0,0,126,222,.42.42,0,0,0,125.55,221.46Z" style="fill:#f60"/><polygon points="124.13 226.82 125.09 226.82 125.76 223.03 124.79 223.03 124.13 226.82" style="fill:#f60"/><path d="M123.36,223l-.94,1.92c-.16.34-.3.64-.42,1h0a8.21,8.21,0,0,0-.09-1l-.27-1.92h-1l.74,3.79h.94l2.11-3.79Z" style="fill:#f60"/><path d="M118.68,223a3.06,3.06,0,0,0-1.42.33l.07.62a2.35,2.35,0,0,1,1.07-.27c.67,0,.7.41.65.66v.06c-1.4,0-2.33.47-2.5,1.43a.92.92,0,0,0,1,1.12,1.7,1.7,0,0,0,1.21-.5h0v.42h.86a7.39,7.39,0,0,1,.11-.91l.24-1.37C120.11,223.72,119.89,223,118.68,223Zm.18,2.54a.65.65,0,0,1-.07.21,1,1,0,0,1-.83.52.41.41,0,0,1-.45-.54c.1-.58.77-.73,1.44-.71Z" style="fill:#f60"/><path d="M115.42,223.63a1.53,1.53,0,0,1,.76.22l.3-.68a2,2,0,0,0-1-.22,1.56,1.56,0,0,0-1.64,1.19c-.08.44.16.84.85,1.1.44.16.57.3.52.55s-.26.42-.68.42a1.85,1.85,0,0,1-.92-.27l-.31.69a2.13,2.13,0,0,0,1.1.26c1,0,1.63-.49,1.75-1.18s-.17-.9-.81-1.15c-.45-.17-.6-.29-.56-.53S115.07,223.63,115.42,223.63Z" style="fill:#f60"/><path d="M110.88,223.76h0l.1-.73h-.83c0,.35-.1.71-.19,1.22l-.45,2.57h1l.34-2a2.17,2.17,0,0,1,.08-.3,1.06,1.06,0,0,1,1-.72,1.85,1.85,0,0,1,.27,0l.16-.9-.22,0A1.4,1.4,0,0,0,110.88,223.76Z" style="fill:#f60"/><path d="M107.91,225.32a1.1,1.1,0,0,1-.1.29,1,1,0,0,1-.82.52c-.51,0-.64-.41-.53-1l.36-2.06h-.95l-.39,2.23c-.22,1.23.34,1.64,1,1.64a1.68,1.68,0,0,0,1.32-.66h0l0,.58h.83c0-.31.09-.69.17-1.14l.47-2.65h-1Z" style="fill:#f60"/><path d="M103.39,223a2.31,2.31,0,0,0-2.31,2,1.51,1.51,0,0,0,1.55,2,2.32,2.32,0,0,0,2.3-2A1.49,1.49,0,0,0,103.39,223Zm.55,2c-.14.77-.61,1.3-1.16,1.3s-.84-.55-.71-1.28.5-1.28,1.17-1.28S104,224.32,103.94,224.91Z" style="fill:#f60"/><path d="M100.34,223l-1,2-.33.75h0c0-.22-.05-.51-.08-.74l-.33-2h-1l.77,3.48a.31.31,0,0,1,0,.18c0,.05,0,.1-.09.17a2.18,2.18,0,0,1-.62.6,2.08,2.08,0,0,1-.61.27l.08.8a2.26,2.26,0,0,0,1.08-.49,7,7,0,0,0,1.75-2.43l1.4-2.58Z" style="fill:#f60"/><path d="M95.3,222l-1,.22-.15.85h-.54l-.13.72h.55l-.32,1.78a1.4,1.4,0,0,0,.11,1.05.92.92,0,0,0,.77.31,2.15,2.15,0,0,0,.71-.09l.11-.73a1.67,1.67,0,0,1-.38.05c-.36,0-.45-.24-.36-.7l.29-1.67h.91L96,223h-.9Z" style="fill:#f60"/><path d="M91.78,225.32a1.1,1.1,0,0,1-.11.29,1,1,0,0,1-.82.52c-.51,0-.64-.41-.53-1l.37-2.06h-1l-.39,2.23c-.22,1.23.34,1.64,1,1.64a1.68,1.68,0,0,0,1.33-.66h0l0,.58h.84c0-.31.09-.69.17-1.14l.46-2.65h-.95Z" style="fill:#f60"/><path d="M87.25,223a2.31,2.31,0,0,0-2.31,2,1.51,1.51,0,0,0,1.55,2,2.31,2.31,0,0,0,2.3-2A1.49,1.49,0,0,0,87.25,223Zm.55,2c-.13.77-.61,1.3-1.15,1.3s-.84-.55-.72-1.28.5-1.28,1.18-1.28S87.9,224.32,87.8,224.91Z" style="fill:#f60"/><path d="M78.9,223a3.06,3.06,0,0,0-1.42.33l.07.62a2.35,2.35,0,0,1,1.07-.27c.67,0,.7.41.65.66v.06c-1.4,0-2.33.47-2.5,1.43a.92.92,0,0,0,1,1.12,1.7,1.7,0,0,0,1.21-.5h0v.42h.86a7.39,7.39,0,0,1,.11-.91l.24-1.37C80.33,223.72,80.11,223,78.9,223Zm.18,2.54a.65.65,0,0,1-.07.21,1,1,0,0,1-.83.52.41.41,0,0,1-.45-.54c.1-.58.77-.73,1.44-.71Z" style="fill:#f60"/><path d="M74.16,223.45h0a1,1,0,0,0-1-.5,2.23,2.23,0,0,0-2,2c-.2,1.16.37,1.93,1.28,1.93a1.65,1.65,0,0,0,1.35-.68h0l-.07.6h.85c0-.26.09-.68.16-1.07l.79-4.45h-1Zm-.2,1.16-.1.57a2.29,2.29,0,0,1-.08.28,1.06,1.06,0,0,1-1,.67c-.6,0-.85-.5-.73-1.19s.56-1.25,1.17-1.25a.67.67,0,0,1,.71.67A2.11,2.11,0,0,1,74,224.61Z" style="fill:#f60"/><path d="M69.21,223a2.31,2.31,0,0,0-2.31,2,1.51,1.51,0,0,0,1.55,2,2.32,2.32,0,0,0,2.3-2A1.49,1.49,0,0,0,69.21,223Zm.55,2c-.14.77-.61,1.3-1.16,1.3s-.84-.55-.71-1.28.5-1.28,1.17-1.28S69.86,224.32,69.76,224.91Z" style="fill:#f60"/><path d="M65,223a2.29,2.29,0,0,0-2.31,2,1.5,1.5,0,0,0,1.55,2,2.31,2.31,0,0,0,2.29-2A1.49,1.49,0,0,0,65,223Zm.54,2c-.13.77-.61,1.3-1.15,1.3s-.84-.55-.71-1.28.49-1.28,1.17-1.28S65.64,224.32,65.53,224.91Z" style="fill:#f60"/><path d="M61.46,223.54h0a1,1,0,0,0-1-.59,2.25,2.25,0,0,0-2.07,2c-.19,1.07.34,1.84,1.28,1.84a1.52,1.52,0,0,0,1.2-.56h0l-.06.33a1.22,1.22,0,0,1-1.29,1.14,2,2,0,0,1-1.05-.29l-.33.73a2.37,2.37,0,0,0,1.26.3A2.49,2.49,0,0,0,61,228a2.62,2.62,0,0,0,.86-1.71l.38-2.15c.09-.52.16-.83.23-1.09h-.84Zm-.3,1-.11.61a1.33,1.33,0,0,1-.1.34,1,1,0,0,1-.87.58c-.6,0-.84-.52-.72-1.17s.61-1.23,1.15-1.23a.64.64,0,0,1,.67.61A.78.78,0,0,1,61.16,224.55Z" style="fill:#f60"/><path d="M83.32,222.91a1.52,1.52,0,0,0-1.25.65h0l.42-2.25h-.92l-.73,3.93a3,3,0,0,0-.06.65c0,.7.5,1.05,1.3,1.05a2.46,2.46,0,0,0,2.44-2.63A1.27,1.27,0,0,0,83.32,222.91Zm-1.09,3.31a.46.46,0,0,1-.52-.48,2,2,0,0,1,.05-.46l.06-.35c.14-.78.63-1.27,1.11-1.27s.61.44.61.79C83.54,225.2,83,226.22,82.23,226.22Z" style="fill:#f60"/><path d="M50.9,224a1.11,1.11,0,0,0-1.25-1.08,2.29,2.29,0,0,0-2.14,2.38,1.48,1.48,0,0,0,1.6,1.64,3,3,0,0,0,1.35-.31l-.09-.67a2.51,2.51,0,0,1-1.06.25.84.84,0,0,1-.8-.39,1.05,1.05,0,0,1-.11-.54C49.78,225.28,50.9,225.09,50.9,224Zm-2.42.59a1.17,1.17,0,0,1,1.05-1c.3,0,.5.15.5.39C50,224.4,49.66,224.59,48.48,224.59Z" style="fill:#f60"/><path d="M54.68,224a1.11,1.11,0,0,0-1.25-1.08,2.29,2.29,0,0,0-2.14,2.38,1.48,1.48,0,0,0,1.6,1.64,3,3,0,0,0,1.35-.31l-.09-.67a2.51,2.51,0,0,1-1.06.25.84.84,0,0,1-.8-.39,1.05,1.05,0,0,1-.11-.54C53.56,225.28,54.68,225.09,54.68,224Zm-2.42.59a1.18,1.18,0,0,1,1.06-1c.29,0,.49.15.49.39C53.81,224.4,53.44,224.59,52.26,224.59Z" style="fill:#f60"/><rect x="0.5" y="0.5" width="300" height="250" style="fill:#fff;stroke:#231f20;opacity:0"/><path d="M32.37,211a4.27,4.27,0,0,1,.81,1.11,3.22,3.22,0,0,1-.85,3.89,9.61,9.61,0,0,1-6.68,2.26A9.59,9.59,0,0,1,19,216a3.2,3.2,0,0,1-.85-3.89,4.44,4.44,0,0,1,.81-1.11,4.58,4.58,0,0,0-1,1.3,3.71,3.71,0,0,0,.87,4.23c1.46,1.43,3.75,2.3,6.87,2.3s5.41-.89,6.81-2.3a3.74,3.74,0,0,0,.86-4.27A4.39,4.39,0,0,0,32.37,211Z" style="fill:#f60"/><g style="opacity:0.85"><path d="M32.37,211a4.27,4.27,0,0,1,.81,1.11,3.22,3.22,0,0,1-.85,3.89,9.61,9.61,0,0,1-6.68,2.26A9.59,9.59,0,0,1,19,216a3.2,3.2,0,0,1-.85-3.89,4.44,4.44,0,0,1,.81-1.11,4.58,4.58,0,0,0-1,1.3,3.71,3.71,0,0,0,.87,4.23c1.46,1.43,3.75,2.3,6.87,2.3s5.41-.89,6.81-2.3a3.74,3.74,0,0,0,.86-4.27A4.39,4.39,0,0,0,32.37,211Z" style="fill:url(#a)"/></g><path d="M30.08,209.57a12.21,12.21,0,0,0-8.85,0,5.81,5.81,0,0,0-3.1,2.58A3.2,3.2,0,0,0,19,216a9.59,9.59,0,0,0,6.67,2.26A9.61,9.61,0,0,0,32.33,216a3.22,3.22,0,0,0,.85-3.89A5.85,5.85,0,0,0,30.08,209.57Z" style="fill:#f60"/><path d="M25.92,210.19a2.41,2.41,0,0,1-.16-1.44h-.11a11.83,11.83,0,0,0-4.42.83,5.81,5.81,0,0,0-3.1,2.58A3.2,3.2,0,0,0,19,216l.27.25C24.5,216,27.25,212.91,25.92,210.19Z" style="fill:url(#b)"/><path d="M22.27,210.28a26.1,26.1,0,0,1,2.85.89c.19-.56.38-1.12.61-1.67.23.55.43,1.11.61,1.67a28.88,28.88,0,0,1,2.83-.88,21.57,21.57,0,0,0-1.92,1.37c1.29.17,2.49.38,3.76.66-1.26,0-2.46,0-3.72.1.89.75,1.66,1.48,2.49,2.31-1.14-.65-2.21-1.2-3.39-1.76-.23,1-.45,2-.66,3-.21-1-.4-1.94-.63-2.93-1.18.56-2.26,1.09-3.43,1.71.83-.82,1.61-1.53,2.5-2.29-1.26-.08-2.47-.1-3.77-.11,1.27-.28,2.53-.49,3.82-.66A22.24,22.24,0,0,0,22.27,210.28ZM25.73,212v-2.19c-.22.61-.42,1.23-.6,1.85Zm-2.89-1.49c.78.34,1.54.73,2.29,1.15l-.56.05C24,211.3,23.44,210.89,22.84,210.52ZM25.73,212c1.51,0,3,.08,4.51.23-1.31-.24-2.59-.42-3.91-.58Zm2.89-1.49c-.78.34-1.54.73-2.29,1.14l-.09-.3A24.87,24.87,0,0,1,28.62,210.52Zm-3,1.49c0,1.05.07,2.18.08,3.2.2-1,.4-1.89.62-2.83C26.15,212.25,25.86,212.13,25.65,212Zm3.4,2.18c-.88-.64-1.78-1.24-2.7-1.81l.57,0Q28,213.23,29.05,214.19ZM25.73,212c-1.51,0-2.7.09-4.18.21,1.28,0,2.27.06,3.57.16Zm-3.32,2.18c.88-.64,1.78-1.24,2.71-1.81a3.59,3.59,0,0,0,.08.35C24.25,213.19,23.33,213.67,22.41,214.19Z" style="fill:#fff;fill-rule:evenodd"/><path d="M25.88,218a.78.78,0,0,1-.15.1l-.15-.1v-1.23l.15-.09.15.09Z" style="fill:#fff;fill-rule:evenodd"/><path d="M18.58,215l-.07.14.17.06,1.28-.68a1.13,1.13,0,0,0,0-.15l-.13,0Z" style="fill:#fff;fill-rule:evenodd"/><path d="M18.27,212.52l-.12.09.07.09c.4-.06.8-.1,1.2-.15l.12-.11-.07-.07Q18.87,212.43,18.27,212.52Z" style="fill:#fff;fill-rule:evenodd"/><path d="M19.81,210.48l-.12.06s0,.06,0,.09c.3,0,.59.09.89.15a.47.47,0,0,1,.12-.07l0-.08C20.4,210.57,20.11,210.52,19.81,210.48Z" style="fill:#fff;fill-rule:evenodd"/><path d="M28.85,209.23H29l.05.05c-.16.09-.31.2-.46.3h-.12l0-.05Z" style="fill:#fff;fill-rule:evenodd"/><path d="M25.63,208.8l.08,0,.09,0v.36l-.09,0-.09,0C25.62,209,25.62,208.92,25.63,208.8Z" style="fill:#fff;fill-rule:evenodd"/><path d="M22.39,209.28l.06-.05h.12l.46.3-.05.05h-.13Z" style="fill:#fff;fill-rule:evenodd"/><path d="M21.45,217.26a1.38,1.38,0,0,1-.2,0,1.39,1.39,0,0,0-.06-.13c.3-.36.61-.71.91-1.06l.2,0a.75.75,0,0,0,.06.13Z" style="fill:#fff;fill-rule:evenodd"/><path d="M32.78,215c0,.05,0,.09.07.14l-.17.06-1.28-.68a.66.66,0,0,0,0-.15l.13,0Z" style="fill:#fff;fill-rule:evenodd"/><path d="M33.1,212.52l.11.09-.06.09c-.4-.06-.81-.1-1.21-.15l-.12-.11.07-.07C32.29,212.41,32.7,212.46,33.1,212.52Z" style="fill:#fff;fill-rule:evenodd"/><path d="M31.55,210.48l.12.06a.31.31,0,0,1,0,.09c-.29,0-.59.09-.88.15a.83.83,0,0,0-.13-.07s0-.06,0-.08C31,210.57,31.26,210.52,31.55,210.48Z" style="fill:#fff;fill-rule:evenodd"/><path d="M29.92,217.26l.19,0,.06-.13c-.3-.36-.6-.71-.91-1.06l-.2,0a.75.75,0,0,1-.06.13C29.31,216.55,29.62,216.9,29.92,217.26Z" style="fill:#fff;fill-rule:evenodd"/><path d="M25.12,211.2c-.91-.33-1.81-.62-2.75-.86l-.1-.06a26.1,26.1,0,0,1,2.85.89c.19-.56.38-1.12.61-1.67.23.55.43,1.11.61,1.67a28.88,28.88,0,0,1,2.83-.88l-.09.06c-.95.24-1.82.52-2.74.85-.18-.56-.38-1.11-.61-1.66C25.5,210.09,25.31,210.64,25.12,211.2Zm-.95,1.24c-.88.75-1.69,1.48-2.5,2.29l.13-.07c.8-.79,1.51-1.43,2.37-2.16Zm1.56-.43h0v0h0Zm0,0,0,0c-.19.1-.37.22-.55.33v0l.6-.37v0Zm-.57-.36h-.06l-.5.05c-.56-.42-1.13-.83-1.73-1.2v0c.6.38,1.17.78,1.73,1.21l.56-.06.53.3h.07C25.54,211.89,25.33,211.78,25.13,211.67Zm-2.72,2.57c.92-.52,1.84-1,2.79-1.46v-.05c-.95.46-1.87.94-2.79,1.46Zm3.94-1.86c-.21.93-.42,1.89-.62,2.83v0c.2-.94.4-1.88.62-2.82.63.39,1.54,1,2.7,1.82v-.05C28.17,213.55,27.27,213,26.35,212.38Zm1,.07,0,0v.05c.86.73,1.55,1.39,2.35,2.18l.14.08C28.93,213.89,28.18,213.17,27.33,212.45Zm-3.15-.77c-1.28.16-2.52.37-3.78.65h.2c1.21-.26,2.39-.46,3.62-.61v-.05Zm.94.7c-1.19-.1-2.37-.16-3.56-.15v0q1.76,0,3.51.15l.05,0m2.13-.67c1.22.15,2.34.35,3.55.6H31c-1.27-.28-2.47-.49-3.76-.66Zm-1.46.3h-.06l0,0,0,0a43.86,43.86,0,0,1,4.44.23v0c-1.5-.15-3-.23-4.51-.23m.6-.35h.05c.73-.4,1.48-.78,2.24-1.12v0c-.78.34-1.54.73-2.29,1.14m0,0-.09-.3v0c0,.09.05.19.08.28h0m-6.47,2.8.12,0a.64.64,0,0,0,0-.07l-.13,0-1.29.66-.07.14h0l0-.08Zm-.39-2,.05,0,0,0-.07-.07q-.6.06-1.2.15l-.12.09,0,0,.1-.08Zm.34-1.88c.3,0,.89.16.9.16l0-.08c-.29-.06-.58-.11-.88-.15l-.12.06v.06ZM29,209.29h0l0,0-.05-.05h-.11l-.46.3,0,0,.43-.28Zm-3.33-.42.08,0,.09,0v-.07l-.09,0-.08,0Zm-3.06.41.42.29,0,0-.46-.3h-.12l-.06.05,0,0,0,0Zm-.28,6.83a.31.31,0,0,1,.05.1l0,0a1.39,1.39,0,0,0-.06-.13l-.2,0c-.3.35-.61.7-.91,1.06a.17.17,0,0,1,0,.05c.2-.23.61-.72.92-1.07Zm10.49-1,0,.08h0c0-.05-.05-.09-.07-.14l-1.29-.66-.13,0a.64.64,0,0,0,0,.07l.12,0Zm.3-2.54.1.08s0,0,0,0l-.11-.09c-.4-.06-.81-.11-1.21-.15l-.07.07,0,0s0,0,0,0Zm-1.41-2v-.06l-.12-.06c-.29,0-.59.09-.88.15,0,0,0,.05,0,.08s.61-.12.9-.16Zm-2.43,5.54.91,1.07s0,0,0-.05c-.3-.36-.6-.71-.91-1.06l-.2,0-.06.13,0,0,.05-.1Zm-3.39.69,0,1.18v-1.23l-.15-.09-.15.09V218l0-1.18a.75.75,0,0,1,.12-.07A.47.47,0,0,1,25.85,216.83Zm-.15-.36c2.16,0,6.59-1.11,5.93-4.08-.54-2.39-3.85-3.1-5.93-3.1s-5.39.71-5.92,3.1C19.11,215.36,23.55,216.47,25.7,216.47Zm0-.19c2.07,0,6.33-1.05,5.71-3.91-.5-2.31-3.71-3-5.71-3s-5.2.68-5.7,3C19.37,215.23,23.63,216.28,25.7,216.28Z" style="fill-rule:evenodd;fill:url(#c)"/><path d="M19.8,212.46c.53-2.39,3.71-3.11,5.92-3.11s5.39.72,5.93,3.11c.66,3-3.77,4.08-5.93,4.08S19.13,215.43,19.8,212.46Zm.21,0c.51-2.3,3.71-3,5.71-3s5.21.69,5.71,3c.62,2.86-3.64,3.92-5.71,3.91S19.39,215.3,20,212.44Z" style="fill:#fff;fill-rule:evenodd"/><path d="M32.79,213l-1-.14-.13,0a1.23,1.23,0,0,1-.61-.42c-.13-.21-.46-.57-.64-.8s-.81-.59-.89-.72-.22-.36-.26-.44a.26.26,0,0,0-.27-.16c-.15,0-.16.06-.29.07a1.53,1.53,0,0,1-.3,0l-.18,0a.5.5,0,0,1-.48.2h-.05c0,.06.29.1.34.1a2.61,2.61,0,0,1,.36.08.45.45,0,0,1,.28.09,2.07,2.07,0,0,1,.87,1.1c.05.23.45.62.5.84a4.26,4.26,0,0,1-1.26-.4l-.1-.05a2.17,2.17,0,0,0-.81-.18,5.42,5.42,0,0,1-1.38-.24c-.2-.06-.17-.1-.33-.11h-.08a.76.76,0,0,1-.08.11,2.19,2.19,0,0,0-.44.51.31.31,0,0,1-.19.12l.53-.13a2.42,2.42,0,0,1,.83.1,3.9,3.9,0,0,1,.49.16,9.77,9.77,0,0,1,1.66.64,11.78,11.78,0,0,0,1.61.67,9.81,9.81,0,0,1,1,.49,9.29,9.29,0,0,0,1.55.73,3.08,3.08,0,0,0,.4-2h0Z" style="fill:#3b2e4f;opacity:0.66"/><path d="M32.3,211.85l-.2,0-.26.16c0,.05.08.12.08.12s.34,0,.34.11a3,3,0,0,0,1,.16h0l-.12-.27L33,211.9h0A2.57,2.57,0,0,0,32.3,211.85Z" style="fill:#3b2e4f;opacity:0.66"/><path d="M30.33,215.11s-.06-.09-.4-.09.09.51.09.51a4.39,4.39,0,0,0,1,.35c.15,0,.63.17.63.17a3.29,3.29,0,0,1,.52.11l.12-.12a4.28,4.28,0,0,0,.41-.45,4.83,4.83,0,0,1-2.07-.35C30.61,215.05,30.33,215.11,30.33,215.11Z" style="fill:#3b2e4f;opacity:0.66"/><path d="M28.54,205.84l-.2-.19c0-.06.05-.15.07-.25l-.06,0a1.13,1.13,0,0,1,0-.68.42.42,0,0,0,.06-.29,14.71,14.71,0,0,0-.7-1.57,1,1,0,0,1-.06-.39,3.38,3.38,0,0,1-.48-1,5.66,5.66,0,0,0-.34,1.25c0,.58.59.86.39,1.82,0,.19-.11.44-.18.71.12.67.12,1.16.3,1.93a2.16,2.16,0,0,1,.57,1c.07.25.28.84.55.92s-.56.19-.77-.07-.55-.45-.71-.72-.34-.66-.47-.88l-.15.83a2.69,2.69,0,0,1-.11,1.79c-.08.31-.7-1.14-.7-1.25a2.07,2.07,0,0,0-.1-.71,1.9,1.9,0,0,1-.1-.89c0-.46,0-1.32,0-1.55a7.66,7.66,0,0,1-.6-1.48c-.06-.61,0-1.23,0-1.84a2.53,2.53,0,0,1-.46.93c-.36.35-.68.74-1,1.12-.12.16,0,.24-.2.49s-.08.14-.11.38a.19.19,0,0,1,0,.08.31.31,0,0,1-.34.09c-.26-.13-.28-.32-.29-.57,0-.48.31-.5.52-.79.39-.57.59-1.52,1-1.95a7.35,7.35,0,0,1,.31-.85,1.25,1.25,0,0,1,.73-1.3c.24-.09.55-.12.56-.45a.47.47,0,0,0,0-.17c-.1-.08-.16-.08-.21-.14a3.56,3.56,0,0,1-.16-.95c.13-.66.45-.88.85-.86a.78.78,0,0,1,.83.89c0,.51-.55,1.17.24,1.41.3.1.36,0,.62.29a2.2,2.2,0,0,1,.41,1.29l.3.69c.54.92.34,1.21.54,2.14a4.13,4.13,0,0,1,.16,1C29,205.27,28.81,205.83,28.54,205.84Z" style="fill:#ffbf5c"/><path d="M22.87,205.15c0-.24,0-.22.15-.45s.07-.32.2-.5a14.84,14.84,0,0,1,1-1.14,4.16,4.16,0,0,0,.63-1.33s0-.06.05,0a11.19,11.19,0,0,1,.11,1.51,3,3,0,0,0,.45,2A2.22,2.22,0,0,1,25.8,204a17.23,17.23,0,0,0-.33,3.1,1.87,1.87,0,0,0,0,.85,2.45,2.45,0,0,1,.05.55c0,.1,0,1.9,0,1.9l-.17.83a1.57,1.57,0,0,1-.6.77c-.07,0-.24.13-.24.21s.85.38,1,.08a2.19,2.19,0,0,1,.44-.51c.26-.26,0-.52,0-.87.07-.6.32-1.13.41-1.7a1.88,1.88,0,0,0-.11-1l.11-1.09c.12.19.24.48.36.73a2.12,2.12,0,0,0,.58.85,2.3,2.3,0,0,1,.35.41A1.47,1.47,0,0,1,28,210c-.13.23-.18.22-.34.36,0,0-.05.13.11.13.55,0,.48-.28.69-.66s.52-.61.1-.73a.57.57,0,0,1-.34-.25,3.25,3.25,0,0,1-.46-.94,1.5,1.5,0,0,0-.5-.67,2.9,2.9,0,0,1-.24-.86c-.06-.44-.1-.76-.17-1.21a2.13,2.13,0,0,0,0-1.86,1.39,1.39,0,0,1-.13-.61,4.09,4.09,0,0,1,.29-1.21.46.46,0,0,1,.23-.29,3.51,3.51,0,0,0,.57,1.18,1.08,1.08,0,0,0,.06.4,14.18,14.18,0,0,1,.7,1.59c.06.19,0,.29-.07.44a1.45,1.45,0,0,0,0,.46l.08,0c0,.05-.05.19-.08.25s.11.12.11.12.3-.47.29-.65a3.31,3.31,0,0,0-.17-.95,4.67,4.67,0,0,0-.59-2.07l-.29-.73c0-.37-.19-1.22-.67-1.37-.08,0-.16,0-.28-.07-.62-.2-.62-.68-.45-1.21s.17-1-.51-1.07c-.43,0-.56.3-.65.68a3.37,3.37,0,0,0,.12.81c.18.13.28.09.27.43a.59.59,0,0,1-.43.54c-.4.14-.61.22-.74.63a1.92,1.92,0,0,0-.08.59v0a9,9,0,0,0-.34.91c-.49.49-.74,1.61-1.24,2.08-.33.32-.43.34-.3.82,0,0,.17.18.2.19S22.88,205.18,22.87,205.15Z" style="fill:url(#d)"/></svg>